HIERARCHY
ROOT Hips
{
	OFFSET 0.000000 0.000000 0.000000 
	CHANNELS 6 Xposition Yposition Zposition Yrotation Zrotation Xrotation 
	JOINT Lumbar
	{
		OFFSET 0.000000 0.000000 0.000000 
		CHANNELS 3 Zrotation Xrotation Yrotation
		JOINT Neck
		{
			OFFSET 0.000000 0.445665 0.000000 
			CHANNELS 3 Zrotation Xrotation Yrotation
			End Site
			{
				OFFSET 0.000000 0.227535 0.000000 
			}
		}
		JOINT RightShoulder
		{
			OFFSET 0.019635 0.377685 0.194865 
			CHANNELS 3 Zrotation Xrotation Yrotation
			JOINT RightElbow
			{
				OFFSET 0.000000 -0.243375 0.000000 
				CHANNELS 2 Zrotation Yrotation
				JOINT RightWrist
				{
					OFFSET 0.000000 -0.264825 0.000000 
					CHANNELS 2 Zrotation Xrotation
					End Site
					{
						OFFSET 0.006600 -0.176220 0.000990 
					}
				}
			}
		}
		JOINT LeftShoulder
		{
			OFFSET 0.019635 0.377685 -0.194865 
			CHANNELS 3 Zrotation Xrotation Yrotation
			JOINT LeftElbow
			{
				OFFSET 0.000000 -0.243375 0.000000 
				CHANNELS 2 Zrotation Yrotation
				JOINT LeftWrist
				{
					OFFSET 0.000000 -0.264825 0.000000 
					CHANNELS 2 Zrotation Xrotation
					End Site
					{
						OFFSET 0.006600 -0.176220 -0.000990 
					}
				}
			}
		}
	}
	JOINT RightHip
	{
		OFFSET 0.052140 -0.069960 0.075570 
		CHANNELS 3 Zrotation Xrotation Yrotation
		JOINT RightKnee
		{
			OFFSET 0.000000 -0.402270 0.000000 
			CHANNELS 1 Zrotation
			JOINT RightAnkle
			{
				OFFSET 0.000000 -0.404085 0.000000 
				CHANNELS 3 Zrotation Xrotation Yrotation
				End Site
				{
					OFFSET 0.204105 -0.089430 0.008415 
				}
			}
		}
	}
	JOINT LeftHip
	{
		OFFSET 0.052140 -0.069960 -0.075570 
		CHANNELS 3 Zrotation Xrotation Yrotation
		JOINT LeftKnee
		{
			OFFSET 0.000000 -0.402270 0.000000 
			CHANNELS 1 Zrotation
			JOINT LeftAnkle
			{
				OFFSET 0.000000 -0.404085 0.000000 
				CHANNELS 3 Zrotation Xrotation Yrotation
				End Site
				{
					OFFSET 0.204105 -0.089430 -0.008415 
				}
			}
		}
	}
}
MOTION
Frames: 24
Frame Time: 0.02
-0.33598 -1.03051 0.22699 41.99754 63.52328 -15.9852 45.11494 2.28665 -4.85766 -11.86955 -4.27497 -2.11984 -7.83768 -144.10924 -84.07195 93.46272 117.94792 -55.42113 -6.85552 124.85239 35.82711 -40.55509 105.36745 -110.55587 -23.83369 8.56357 49.743 13.68918 -46.68278 -10.85925 -39.22262 0.3714 -3.68052 40.7751 -5.89375 14.36372 -0.46059 -34.35323 -8.31758 -1.31465
-0.3367 -1.03082 0.22633 42.38689 63.64081 -16.42709 44.72533 2.54865 -4.27829 -11.84439 -4.04943 -2.11985 -5.96936 -143.84653 -82.51857 93.93432 115.93379 -53.10246 -6.67462 124.118 35.78771 -39.8199 105.54444 -110.09406 -23.4242 8.48509 50.00986 13.69947 -46.71038 -9.32186 -40.0993 1.54051 -4.27172 40.62147 -5.93559 14.23359 -0.45991 -34.60634 -8.50735 -1.38181
-0.3375 -1.03129 0.22568 42.91171 63.69173 -16.98415 44.28235 2.83066 -3.52935 -11.66553 -3.79016 -2.11985 -3.53794 -143.53964 -80.54517 94.51908 113.36063 -50.22664 -6.44205 123.65504 36.00246 -39.44012 105.77914 -110.74297 -24.29563 8.47435 50.33505 13.69428 -46.69426 -7.26108 -41.40236 2.68067 -5.50569 40.54142 -6.01035 14.07827 -0.45889 -34.95425 -8.65406 -1.42066
-0.33827 -1.0317 0.22504 43.28504 63.5866 -17.41183 44.01486 3.09996 -2.86164 -11.40172 -3.53443 -2.11985 -1.34335 -143.24148 -78.82244 95.0508 111.08943 -47.65999 -6.23806 123.1535 36.09101 -38.90468 105.98955 -110.78094 -24.49354 8.4254 50.85591 13.6706 -46.62102 -5.49361 -42.48623 3.8436 -6.4391 40.63876 -6.06317 13.92106 -0.458 -35.28203 -8.79862 -1.45766
-0.33902 -1.03207 0.22433 44.01829 64.21527 -18.14803 43.14911 3.38559 -2.1697 -11.74269 -3.32827 -2.11985 0.80001 -142.99175 -76.85121 95.59131 108.6173 -44.85315 -6.01324 122.30124 36.21116 -38.31477 106.19575 -111.18416 -24.9935 8.40076 50.50141 13.75454 -46.86386 -3.49003 -43.68149 4.98935 -7.40731 39.90499 -6.14558 13.81977 -0.45719 -35.52093 -9.03294 -1.55399
-0.33982 -1.03256 0.22378 44.0582 63.36586 -18.28977 43.4665 3.64146 -1.49587 -10.84958 -3.0105 -2.11986 3.14613 -142.62906 -75.29434 96.139 106.43105 -42.41995 -5.81905 122.21426 36.32847 -37.93214 106.41998 -111.13301 -25.20771 8.34516 51.90719 13.61078 -46.4491 -1.85414 -44.74206 6.14579 -8.45006 40.84595 -6.17378 13.59878 -0.45616 -35.95747 -9.07359 -1.52313
-0.34078 -1.03333 0.22365 41.93978 57.87237 -16.57849 47.50415 3.81088 -0.84704 -6.03959 -2.39818 -2.11986 6.24528 -141.98225 -75.0093 96.68432 105.16031 -41.10351 -5.72454 124.51271 36.40894 -38.06012 106.71682 -109.41991 -24.23328 8.17626 58.82463 12.84111 -44.1323 -1.36908 -45.35648 7.45525 -9.61717 47.03972 -6.04842 13.02143 -0.45426 -37.00352 -8.55567 -1.12277
-0.34176 -1.03423 0.22369 39.15443 50.99357 -14.29556 52.65865 3.94899 -0.23464 -0.08757 -1.67398 -2.11987 9.47076 -141.22021 -75.15091 97.23027 104.19636 -40.19172 -5.66195 127.51609 36.47463 -38.38441 107.02337 -107.24452 -22.95378 7.97648 67.39584 11.8432 -41.1724 -1.27118 -45.81552 8.75481 -10.82547 54.80486 -5.86656 12.33042 -0.4522 -38.22986 -7.85055 -0.60009
-0.34269 -1.03509 0.22365 36.8176 45.13912 -12.39924 57.00484 4.10145 0.3506 4.97391 -0.99736 -2.11988 12.41726 -140.49998 -75.08066 97.77402 103.10109 -39.12825 -5.58328 129.97302 36.52679 -38.6067 107.3005 -105.38233 -21.88154 7.79952 74.76226 10.95016 -38.57162 -0.99147 -46.32484 9.97832 -11.96453 61.41505 -5.70795 11.7116 -0.45041 -39.31551 -7.25349 -0.1501
-0.34378 -1.03586 0.2236 33.88756 37.64939 -9.98658 62.59207 4.25591 1.12582 11.57925 -0.33261 -2.11989 16.305 -139.82292 -75.07161 98.33591 101.95998 -37.90954 -5.51014 133.37719 36.67012 -38.89426 107.68303 -103.13066 -20.5637 7.58914 84.0082 10.05092 -35.69079 -0.71794 -46.93201 11.5333 -13.33339 69.85121 -5.56101 11.00381 -0.4478 -40.64883 -6.558 0.37279
-0.34456 -1.03684 0.22361 32.0128 33.19522 -8.49323 65.89395 4.39628 1.49514 15.27585 0.38208 -2.1199 18.27228 -139.02895 -75.04191 98.85104 100.98464 -37.11729 -5.43288 134.99281 36.62038 -39.08864 107.85034 -101.55572 -19.66757 7.4384 89.7765 9.11164 -33.23639 -0.53061 -47.29655 12.40563 -14.23226 74.90368 -5.37557 10.45646 -0.44683 -41.5125 -6.02352 0.77286
-0.34446 -1.03846 0.22366 33.38894 37.8303 -9.84088 62.31984 4.52448 0.74583 10.33408 1.21379 -2.11991 14.75036 -137.94271 -74.85205 99.30053 100.48075 -37.40784 -5.34408 131.3162 36.00776 -38.96955 107.39272 -102.05215 -20.01757 7.47518 85.14387 8.1088 -32.15921 -0.48689 -46.99528 11.30941 -13.75765 69.81691 -5.10085 10.36434 -0.45066 -40.99425 -5.98042 0.80066
-0.34405 -1.04027 0.22376 35.81769 45.50134 -12.10294 56.46039 4.63613 -0.41005 2.48524 2.08975 -2.11991 9.31614 -136.74288 -74.62822 99.68978 100.12057 -38.11492 -5.249 125.84522 35.20505 -38.74823 106.72027 -103.22449 -20.79574 7.57002 77.02537 7.07539 -31.52666 -0.5192 -46.45906 9.54181 -12.81725 61.3452 -4.78879 10.44043 -0.4561 -40.00407 -6.10573 0.70094
-0.3438 -1.04194 0.22387 37.64902 51.53938 -13.83854 51.84118 4.74246 -1.37658 -3.81828 2.94197 -2.11992 4.85811 -135.59333 -74.42169 100.0652 99.63759 -38.63228 -5.15185 121.31636 34.51165 -38.57931 106.16805 -104.02198 -21.36611 7.62772 70.76312 6.06173 -30.66175 -0.51903 -46.05083 8.13916 -12.13039 54.69484 -4.49133 10.45013 -0.46066 -39.25658 -6.15366 0.6617
-0.34349 -1.04383 0.22384 39.95696 58.59184 -16.02059 46.41641 4.90104 -2.36473 -11.0258 3.81651 -2.11992 -0.04184 -134.4441 -74.22334 100.61758 99.40256 -39.16814 -5.07597 116.28805 33.72641 -38.39866 105.53261 -105.08561 -21.97935 7.72914 63.41858 5.0149 -29.89829 -0.52297 -45.54913 6.48711 -11.2703 46.91192 -4.2011 10.41428 -0.46583 -38.39718 -6.19904 0.61663
-0.34322 -1.04531 0.22413 41.53441 64.27865 -17.49972 42.10367 4.94838 -3.40255 -17.05885 4.64977 -2.11993 -4.48421 -133.27038 -73.99259 100.78343 98.68768 -39.75547 -4.95467 111.8515 33.08083 -38.2077 105.00456 -105.7665 -22.61267 7.75447 57.4681 4.03345 -29.04251 -0.5318 -45.18673 5.1907 -10.65773 40.6542 -3.8887 10.51361 -0.47013 -37.65536 -6.29161 0.55114
-0.34309 -1.04555 0.2253 40.80761 65.3861 -16.79402 41.49046 4.68306 -4.49042 -19.11561 5.38962 -2.11993 -7.14063 -132.04503 -73.69742 99.92576 96.55842 -40.41264 -4.70291 109.59771 32.92426 -38.07981 104.94978 -105.18214 -23.16057 7.54906 56.30635 3.23695 -27.78281 -0.53137 -45.28031 5.08068 -10.85932 39.5113 -3.51551 10.95598 -0.47154 -37.36226 -6.47999 0.46536
-0.34301 -1.04536 0.22679 39.31718 65.03256 -15.35477 42.05735 4.30835 -5.61197 -19.89987 6.07944 -2.11993 -9.2842 -130.80303 -73.36761 98.67498 93.95108 -41.09889 -4.40684 107.97781 32.90428 -37.93224 104.98571 -104.20014 -23.72014 7.26668 56.64441 2.50953 -26.42537 -0.53211 -45.52052 5.34514 -11.32282 39.99924 -3.12322 11.5275 -0.47204 -37.2015 -6.71027 0.36173
-0.3429 -1.04538 0.22813 38.20045 65.39928 -14.26897 42.03169 3.99002 -6.70953 -21.28689 6.77163 -2.11993 -11.69552 -129.57532 -73.03803 97.58601 91.59518 -41.75145 -4.13514 105.99152 32.78451 -37.74823 104.90055 -103.42979 -24.30188 7.02355 56.22949 1.75298 -25.1426 -0.53313 -45.68499 5.41086 -11.655 39.68207 -2.74563 12.03285 -0.47302 -36.97329 -6.91725 0.26262
-0.3428 -1.04533 0.22949 37.01171 65.63776 -13.13492 42.16148 3.64267 -7.85708 -22.6715 7.55354 -2.11993 -14.0157 -128.30987 -72.76475 96.56904 89.09547 -42.50863 -3.845 104.27166 32.81722 -37.74985 105.15137 -102.54949 -24.79024 6.76328 55.99116 0.98353 -23.7482 -0.53363 -45.87883 5.57026 -12.02228 39.51365 -2.34119 12.57403 -0.4738 -36.75855 -7.14581 0.17493
-0.34271 -1.04533 0.23088 35.77265 65.75143 -11.90906 42.28114 3.33037 -8.90428 -23.72099 8.13344 -2.11993 -16.39326 -127.12724 -72.37673 95.30575 86.78581 -43.04508 -3.58328 102.17327 32.56739 -37.36464 104.71883 -101.79831 -25.46048 6.52108 55.7917 0.26048 -22.55614 -0.53442 -46.05038 5.63654 -12.38544 39.47187 -1.98876 13.07097 -0.47474 -36.55458 -7.33989 0.0601
-0.34267 -1.04558 0.23228 34.62287 65.91324 -10.65867 42.06017 3.13831 -9.65445 -24.1455 8.18954 -2.11993 -18.91637 -126.12349 -71.57833 93.49195 85.06469 -42.99971 -3.40666 98.85976 31.50454 -35.89168 102.44704 -101.47127 -26.71251 6.33578 55.30109 -0.37335 -21.95656 -0.53511 -46.11695 5.31887 -12.6684 39.34914 -1.78395 13.39751 -0.47636 -36.33864 -7.40477 -0.11841
-0.34265 -1.04589 0.23369 33.436 65.97853 -9.32736 41.80328 2.98585 -10.30224 -24.26417 8.03957 -2.11993 -21.52587 -125.2159 -70.67597 91.43871 83.55967 -42.72336 -3.26087 95.15519 30.15421 -34.03731 99.4739 -101.29084 -28.12931 6.17354 54.82051 -0.95828 -21.56019 -0.53573 -46.15833 4.90358 -12.94089 39.31962 -1.63254 13.67749 -0.47815 -36.1327 -7.43695 -0.32422
-0.3426 -1.04615 0.23509 32.23353 66.04915 -7.99618 41.59098 2.81772 -11.00298 -24.51555 7.96966 -2.11993 -24.18364 -124.29818 -69.89948 89.47238 81.99099 -42.52678 -3.10389 91.64831 28.93516 -32.37135 96.7752 -101.05838 -29.41497 6.00786 54.3742 -1.5513 -21.06189 -0.53637 -46.2178 4.56058 -13.22429 39.28606 -1.45726 13.98867 -0.47984 -35.93112 -7.49905 -0.52148
